<svg xmlns="http://www.w3.org/2000/svg" width="500" height="500" version="1.0" viewBox="0 0 375 375"><defs><clipPath id="a"><path d="M224.059 149.363H247V173h-22.941Zm0 0"/></clipPath><clipPath id="b"><path d="M224.059 175H247v23h-22.941Zm0 0"/></clipPath><clipPath id="c"><path d="M224.059 201H247v23h-22.941Zm0 0"/></clipPath><clipPath id="d"><path d="M224.059 227H247v22.863h-22.941Zm0 0"/></clipPath><clipPath id="e"><path d="M250 227h23v22.863h-23Zm0 0"/></clipPath><clipPath id="f"><path d="M275 227h24v22.863h-24Zm0 0"/></clipPath><clipPath id="g"><path d="M301 227h23.559v22.863H301Zm0 0"/></clipPath></defs><g clip-path="url(#a)"><path fill="#00a359" d="M224.059 149.363h22.64v22.64h-22.64Zm0 0"/></g><g clip-path="url(#b)"><path fill="#00a359" d="M224.059 175.316h22.64v22.641h-22.64Zm0 0"/></g><g clip-path="url(#c)"><path fill="#00a359" d="M224.059 201.27h22.64v22.64h-22.64Zm0 0"/></g><g clip-path="url(#d)"><path fill="#00a359" d="M224.059 227.223h22.64v22.64h-22.64Zm0 0"/></g><path fill="#00b764" d="M250.016 175.316h22.636v22.641h-22.636ZM250.016 201.27h22.636v22.64h-22.636Zm0 0"/><g clip-path="url(#e)"><path fill="#00b764" d="M250.016 227.223h22.636v22.64h-22.636Zm0 0"/></g><path fill="#00e17b" d="M275.969 201.27h22.636v22.64H275.97Zm0 0"/><g clip-path="url(#f)"><path fill="#00e17b" d="M275.969 227.223h22.636v22.64H275.97Zm0 0"/></g><g clip-path="url(#g)"><path fill="#00ff8b" d="M301.922 227.223h22.637v22.64h-22.637Zm0 0"/></g><path fill="#fff" d="M45.685 121.999c0-3.54.844-6.258 2.532-8.156 1.687-1.895 4.218-2.844 7.593-2.844s5.907.95 7.594 2.844c1.688 1.898 2.531 4.617 2.531 8.156v1.375h-6.5v-1.813c0-1.582-.304-2.695-.906-3.343-.605-.645-1.45-.97-2.531-.97-1.086 0-1.93.325-2.531.97-.606.648-.907 1.761-.907 3.343 0 1.5.332 2.825 1 3.97a16.31 16.31 0 0 0 2.5 3.25c1 1.023 2.07 2.042 3.22 3.062a31.066 31.066 0 0 1 3.218 3.343c1 1.211 1.832 2.586 2.5 4.125.664 1.543 1 3.356 1 5.438 0 3.543-.867 6.262-2.594 8.156-1.73 1.899-4.281 2.844-7.656 2.844s-5.93-.945-7.656-2.844c-1.73-1.894-2.594-4.613-2.594-8.156v-2.688h6.5v3.125c0 1.586.32 2.688.969 3.313.644.625 1.507.937 2.593.937 1.082 0 1.946-.312 2.594-.937.645-.625.969-1.727.969-3.313 0-1.5-.336-2.82-1-3.968a16.686 16.686 0 0 0-2.5-3.25c-1-1.02-2.074-2.04-3.219-3.063a30.001 30.001 0 0 1-3.219-3.344 16.889 16.889 0 0 1-2.5-4.125c-.668-1.539-1-3.351-1-5.437ZM80.059 111.499c3.457 0 6.031.918 7.719 2.75 1.687 1.836 2.53 4.523 2.53 8.062V128c0 3.543-.843 6.23-2.53 8.062-1.688 1.836-4.262 2.75-7.72 2.75h-3.25v16.438h-6.874v-43.75Zm-3.25 6.25v14.812h3.25c1.082 0 1.914-.289 2.5-.875.582-.582.875-1.664.875-3.25v-6.562c0-1.582-.293-2.664-.875-3.25-.586-.582-1.418-.875-2.5-.875ZM100.12 145.186c0 1.586.32 2.7.969 3.344.644.649 1.507.969 2.593.969 1.082 0 1.946-.32 2.594-.969.645-.644.969-1.758.969-3.344v-23.625c0-1.582-.324-2.695-.969-3.343-.648-.645-1.512-.97-2.594-.97-1.086 0-1.949.325-2.593.97-.649.648-.97 1.761-.97 3.343ZM93.245 122c0-3.54.894-6.258 2.687-8.156 1.79-1.895 4.375-2.844 7.75-2.844s5.957.95 7.75 2.844c1.79 1.898 2.688 4.617 2.688 8.156v22.75c0 3.543-.899 6.262-2.688 8.156-1.793 1.899-4.375 2.844-7.75 2.844s-5.96-.945-7.75-2.844c-1.793-1.894-2.687-4.613-2.687-8.156ZM116.556 111.499h21.25v6.25h-7.188v37.5h-6.875v-37.5h-7.187ZM140.804 111.499h6.875v43.75h-6.875ZM159.554 130.936h8.875v6.25h-8.875v18.063h-6.875v-43.75h18.187v6.25h-11.312ZM180.615 140.749l-8.688-29.25h7.188l5.25 19.937 5.25-19.937h6.562l-8.687 29.25v14.5h-6.875ZM56.685 163.999c3.457 0 6.032.918 7.72 2.75 1.687 1.836 2.53 4.523 2.53 8.062v5.688c0 3.543-.843 6.23-2.53 8.062-1.688 1.836-4.263 2.75-7.72 2.75h-3.25v16.438H46.56v-43.75Zm-3.25 6.25v14.812h3.25c1.082 0 1.914-.289 2.5-.875.582-.582.875-1.664.875-3.25v-6.562c0-1.582-.293-2.664-.875-3.25-.586-.582-1.418-.875-2.5-.875ZM70.121 163.999h6.875v37.5H88.31v6.25H70.12ZM113.558 207.749h-6.938l-1.187-7.938h-8.438l-1.187 7.938h-6.313l7-43.75h10.063ZM97.87 193.874h6.625l-3.312-22.125ZM123.18 193.249l-8.687-29.25h7.188l5.25 19.937L132.18 164h6.562l-8.687 29.25v14.5h-6.875ZM141.492 163.999h6.875v37.5h11.312v6.25h-18.187ZM162.678 163.999h6.875v43.75h-6.875ZM173.677 174.499c0-3.54.844-6.258 2.531-8.156 1.688-1.895 4.22-2.844 7.594-2.844 3.375 0 5.906.95 7.594 2.844 1.687 1.898 2.531 4.617 2.531 8.156v1.375h-6.5v-1.813c0-1.582-.304-2.695-.906-3.343-.606-.645-1.45-.97-2.531-.97-1.086 0-1.93.325-2.532.97-.605.648-.906 1.761-.906 3.343 0 1.5.332 2.825 1 3.97a16.31 16.31 0 0 0 2.5 3.25c1 1.023 2.07 2.042 3.219 3.062a31.066 31.066 0 0 1 3.219 3.343c1 1.211 1.832 2.586 2.5 4.125.664 1.543 1 3.356 1 5.438 0 3.543-.867 6.262-2.594 8.156-1.73 1.899-4.281 2.844-7.656 2.844s-5.93-.945-7.657-2.844c-1.73-1.894-2.593-4.613-2.593-8.156v-2.688h6.5v3.125c0 1.586.32 2.688.968 3.313.645.625 1.508.937 2.594.937 1.082 0 1.946-.312 2.594-.937.644-.625.969-1.727.969-3.313 0-1.5-.336-2.82-1-3.968a16.686 16.686 0 0 0-2.5-3.25c-1-1.02-2.075-2.04-3.219-3.063a30.001 30.001 0 0 1-3.219-3.344 16.889 16.889 0 0 1-2.5-4.125c-.668-1.539-1-3.351-1-5.437ZM195.926 163.999h21.25v6.25h-7.188v37.5h-6.875v-37.5h-7.187ZM56.935 216.499c3.582 0 6.176.836 7.782 2.5 1.601 1.668 2.406 4.187 2.406 7.562v1.563c0 2.25-.356 4.105-1.063 5.562-.71 1.461-1.836 2.543-3.375 3.25 1.875.711 3.196 1.868 3.97 3.47.769 1.605 1.155 3.573 1.155 5.905v3.563c0 3.375-.875 5.95-2.625 7.719-1.75 1.773-4.355 2.656-7.812 2.656H46.56v-43.75Zm-3.5 24.062V254h3.938c1.164 0 2.05-.313 2.656-.938.602-.625.906-1.75.906-3.375v-3.812c0-2.04-.343-3.438-1.03-4.188-.688-.75-1.825-1.125-3.407-1.125Zm0-17.812v11.562h2.688c1.289 0 2.3-.332 3.031-1 .727-.664 1.094-1.875 1.094-3.625v-2.437c0-1.582-.281-2.727-.844-3.438-.562-.707-1.45-1.062-2.656-1.062ZM78.371 245.749l-8.687-29.25h7.187l5.25 19.937 5.25-19.937h6.563l-8.688 29.25v14.5h-6.875ZM128.611 260.249h-6.937l-1.188-7.938h-8.437l-1.188 7.938h-6.312l7-43.75h10.062Zm-15.687-13.875h6.625l-3.313-22.125ZM131.797 216.499h6.875v43.75h-6.875Zm0 0"/></svg>