<svg xmlns="http://www.w3.org/2000/svg" xmlns:xlink="http://www.w3.org/1999/xlink" width="500" zoomAndPan="magnify" viewBox="0 0 375 374.999991" height="500" preserveAspectRatio="xMidYMid meet" version="1.0"><defs><g/><clipPath id="9da81670ad"><path d="M 224.058594 149.363281 L 247 149.363281 L 247 173 L 224.058594 173 Z M 224.058594 149.363281 " clip-rule="nonzero"/></clipPath><clipPath id="3c4288400b"><path d="M 224.058594 175 L 247 175 L 247 198 L 224.058594 198 Z M 224.058594 175 " clip-rule="nonzero"/></clipPath><clipPath id="a6c78c2fb2"><path d="M 224.058594 201 L 247 201 L 247 224 L 224.058594 224 Z M 224.058594 201 " clip-rule="nonzero"/></clipPath><clipPath id="7bf2de7e49"><path d="M 224.058594 227 L 247 227 L 247 249.863281 L 224.058594 249.863281 Z M 224.058594 227 " clip-rule="nonzero"/></clipPath><clipPath id="13a83a7315"><path d="M 250 227 L 273 227 L 273 249.863281 L 250 249.863281 Z M 250 227 " clip-rule="nonzero"/></clipPath><clipPath id="2854c1f6ed"><path d="M 275 227 L 299 227 L 299 249.863281 L 275 249.863281 Z M 275 227 " clip-rule="nonzero"/></clipPath><clipPath id="a9fdecd9c2"><path d="M 301 227 L 324.558594 227 L 324.558594 249.863281 L 301 249.863281 Z M 301 227 " clip-rule="nonzero"/></clipPath></defs><g clip-path="url(#9da81670ad)"><path fill="#00a359" d="M 224.058594 149.363281 L 246.699219 149.363281 L 246.699219 172.003906 L 224.058594 172.003906 Z M 224.058594 149.363281 " fill-opacity="1" fill-rule="nonzero"/></g><g clip-path="url(#3c4288400b)"><path fill="#00a359" d="M 224.058594 175.316406 L 246.699219 175.316406 L 246.699219 197.957031 L 224.058594 197.957031 Z M 224.058594 175.316406 " fill-opacity="1" fill-rule="nonzero"/></g><g clip-path="url(#a6c78c2fb2)"><path fill="#00a359" d="M 224.058594 201.269531 L 246.699219 201.269531 L 246.699219 223.910156 L 224.058594 223.910156 Z M 224.058594 201.269531 " fill-opacity="1" fill-rule="nonzero"/></g><g clip-path="url(#7bf2de7e49)"><path fill="#00a359" d="M 224.058594 227.222656 L 246.699219 227.222656 L 246.699219 249.863281 L 224.058594 249.863281 Z M 224.058594 227.222656 " fill-opacity="1" fill-rule="nonzero"/></g><path fill="#00b764" d="M 250.015625 175.316406 L 272.652344 175.316406 L 272.652344 197.957031 L 250.015625 197.957031 Z M 250.015625 175.316406 " fill-opacity="1" fill-rule="nonzero"/><path fill="#00b764" d="M 250.015625 201.269531 L 272.652344 201.269531 L 272.652344 223.910156 L 250.015625 223.910156 Z M 250.015625 201.269531 " fill-opacity="1" fill-rule="nonzero"/><g clip-path="url(#13a83a7315)"><path fill="#00b764" d="M 250.015625 227.222656 L 272.652344 227.222656 L 272.652344 249.863281 L 250.015625 249.863281 Z M 250.015625 227.222656 " fill-opacity="1" fill-rule="nonzero"/></g><path fill="#00e17b" d="M 275.96875 201.269531 L 298.605469 201.269531 L 298.605469 223.910156 L 275.96875 223.910156 Z M 275.96875 201.269531 " fill-opacity="1" fill-rule="nonzero"/><g clip-path="url(#2854c1f6ed)"><path fill="#00e17b" d="M 275.96875 227.222656 L 298.605469 227.222656 L 298.605469 249.863281 L 275.96875 249.863281 Z M 275.96875 227.222656 " fill-opacity="1" fill-rule="nonzero"/></g><g clip-path="url(#a9fdecd9c2)"><path fill="#00ff8b" d="M 301.921875 227.222656 L 324.558594 227.222656 L 324.558594 249.863281 L 301.921875 249.863281 Z M 301.921875 227.222656 " fill-opacity="1" fill-rule="nonzero"/></g><g fill="#ffffff" fill-opacity="1"><g transform="translate(44.06039, 155.248891)"><g><path d="M 1.625 -33.25 C 1.625 -36.789062 2.46875 -39.507812 4.15625 -41.40625 C 5.84375 -43.300781 8.375 -44.25 11.75 -44.25 C 15.125 -44.25 17.65625 -43.300781 19.34375 -41.40625 C 21.03125 -39.507812 21.875 -36.789062 21.875 -33.25 L 21.875 -31.875 L 15.375 -31.875 L 15.375 -33.6875 C 15.375 -35.269531 15.070312 -36.382812 14.46875 -37.03125 C 13.863281 -37.675781 13.019531 -38 11.9375 -38 C 10.851562 -38 10.007812 -37.675781 9.40625 -37.03125 C 8.800781 -36.382812 8.5 -35.269531 8.5 -33.6875 C 8.5 -32.1875 8.832031 -30.863281 9.5 -29.71875 C 10.164062 -28.570312 11 -27.488281 12 -26.46875 C 13 -25.445312 14.070312 -24.425781 15.21875 -23.40625 C 16.363281 -22.382812 17.4375 -21.269531 18.4375 -20.0625 C 19.4375 -18.851562 20.269531 -17.476562 20.9375 -15.9375 C 21.601562 -14.394531 21.9375 -12.582031 21.9375 -10.5 C 21.9375 -6.957031 21.070312 -4.238281 19.34375 -2.34375 C 17.613281 -0.445312 15.0625 0.5 11.6875 0.5 C 8.3125 0.5 5.757812 -0.445312 4.03125 -2.34375 C 2.300781 -4.238281 1.4375 -6.957031 1.4375 -10.5 L 1.4375 -13.1875 L 7.9375 -13.1875 L 7.9375 -10.0625 C 7.9375 -8.476562 8.257812 -7.375 8.90625 -6.75 C 9.550781 -6.125 10.414062 -5.8125 11.5 -5.8125 C 12.582031 -5.8125 13.445312 -6.125 14.09375 -6.75 C 14.738281 -7.375 15.0625 -8.476562 15.0625 -10.0625 C 15.0625 -11.5625 14.726562 -12.882812 14.0625 -14.03125 C 13.394531 -15.175781 12.5625 -16.257812 11.5625 -17.28125 C 10.5625 -18.300781 9.488281 -19.320312 8.34375 -20.34375 C 7.195312 -21.363281 6.125 -22.476562 5.125 -23.6875 C 4.125 -24.894531 3.289062 -26.269531 2.625 -27.8125 C 1.957031 -29.351562 1.625 -31.164062 1.625 -33.25 Z M 1.625 -33.25 "/></g></g></g><g fill="#ffffff" fill-opacity="1"><g transform="translate(67.433893, 155.248891)"><g><path d="M 12.625 -43.75 C 16.082031 -43.75 18.65625 -42.832031 20.34375 -41 C 22.03125 -39.164062 22.875 -36.476562 22.875 -32.9375 L 22.875 -27.25 C 22.875 -23.707031 22.03125 -21.019531 20.34375 -19.1875 C 18.65625 -17.351562 16.082031 -16.4375 12.625 -16.4375 L 9.375 -16.4375 L 9.375 0 L 2.5 0 L 2.5 -43.75 Z M 9.375 -37.5 L 9.375 -22.6875 L 12.625 -22.6875 C 13.707031 -22.6875 14.539062 -22.976562 15.125 -23.5625 C 15.707031 -24.144531 16 -25.226562 16 -26.8125 L 16 -33.375 C 16 -34.957031 15.707031 -36.039062 15.125 -36.625 C 14.539062 -37.207031 13.707031 -37.5 12.625 -37.5 Z M 9.375 -37.5 "/></g></g></g><g fill="#ffffff" fill-opacity="1"><g transform="translate(91.307366, 155.248891)"><g><path d="M 8.8125 -10.0625 C 8.8125 -8.476562 9.132812 -7.363281 9.78125 -6.71875 C 10.425781 -6.070312 11.289062 -5.75 12.375 -5.75 C 13.457031 -5.75 14.320312 -6.070312 14.96875 -6.71875 C 15.613281 -7.363281 15.9375 -8.476562 15.9375 -10.0625 L 15.9375 -33.6875 C 15.9375 -35.269531 15.613281 -36.382812 14.96875 -37.03125 C 14.320312 -37.675781 13.457031 -38 12.375 -38 C 11.289062 -38 10.425781 -37.675781 9.78125 -37.03125 C 9.132812 -36.382812 8.8125 -35.269531 8.8125 -33.6875 Z M 1.9375 -33.25 C 1.9375 -36.789062 2.832031 -39.507812 4.625 -41.40625 C 6.414062 -43.300781 9 -44.25 12.375 -44.25 C 15.75 -44.25 18.332031 -43.300781 20.125 -41.40625 C 21.914062 -39.507812 22.8125 -36.789062 22.8125 -33.25 L 22.8125 -10.5 C 22.8125 -6.957031 21.914062 -4.238281 20.125 -2.34375 C 18.332031 -0.445312 15.75 0.5 12.375 0.5 C 9 0.5 6.414062 -0.445312 4.625 -2.34375 C 2.832031 -4.238281 1.9375 -6.957031 1.9375 -10.5 Z M 1.9375 -33.25 "/></g></g></g><g fill="#ffffff" fill-opacity="1"><g transform="translate(116.055784, 155.248891)"><g><path d="M 0.5 -43.75 L 21.75 -43.75 L 21.75 -37.5 L 14.5625 -37.5 L 14.5625 0 L 7.6875 0 L 7.6875 -37.5 L 0.5 -37.5 Z M 0.5 -43.75 "/></g></g></g><g fill="#ffffff" fill-opacity="1"><g transform="translate(138.304356, 155.248891)"><g><path d="M 2.5 -43.75 L 9.375 -43.75 L 9.375 0 L 2.5 0 Z M 2.5 -43.75 "/></g></g></g><g fill="#ffffff" fill-opacity="1"><g transform="translate(150.178596, 155.248891)"><g><path d="M 9.375 -24.3125 L 18.25 -24.3125 L 18.25 -18.0625 L 9.375 -18.0625 L 9.375 0 L 2.5 0 L 2.5 -43.75 L 20.6875 -43.75 L 20.6875 -37.5 L 9.375 -37.5 Z M 9.375 -24.3125 "/></g></g></g><g fill="#ffffff" fill-opacity="1"><g transform="translate(171.677225, 155.248891)"><g><path d="M 8.9375 -14.5 L 0.25 -43.75 L 7.4375 -43.75 L 12.6875 -23.8125 L 17.9375 -43.75 L 24.5 -43.75 L 15.8125 -14.5 L 15.8125 0 L 8.9375 0 Z M 8.9375 -14.5 "/></g></g></g><g fill="#ffffff" fill-opacity="1"><g transform="translate(44.06039, 207.748887)"><g><path d="M 12.625 -43.75 C 16.082031 -43.75 18.65625 -42.832031 20.34375 -41 C 22.03125 -39.164062 22.875 -36.476562 22.875 -32.9375 L 22.875 -27.25 C 22.875 -23.707031 22.03125 -21.019531 20.34375 -19.1875 C 18.65625 -17.351562 16.082031 -16.4375 12.625 -16.4375 L 9.375 -16.4375 L 9.375 0 L 2.5 0 L 2.5 -43.75 Z M 9.375 -37.5 L 9.375 -22.6875 L 12.625 -22.6875 C 13.707031 -22.6875 14.539062 -22.976562 15.125 -23.5625 C 15.707031 -24.144531 16 -25.226562 16 -26.8125 L 16 -33.375 C 16 -34.957031 15.707031 -36.039062 15.125 -36.625 C 14.539062 -37.207031 13.707031 -37.5 12.625 -37.5 Z M 9.375 -37.5 "/></g></g></g><g fill="#ffffff" fill-opacity="1"><g transform="translate(67.621382, 207.748887)"><g><path d="M 2.5 -43.75 L 9.375 -43.75 L 9.375 -6.25 L 20.6875 -6.25 L 20.6875 0 L 2.5 0 Z M 2.5 -43.75 "/></g></g></g><g fill="#ffffff" fill-opacity="1"><g transform="translate(88.807529, 207.748887)"><g><path d="M 24.75 0 L 17.8125 0 L 16.625 -7.9375 L 8.1875 -7.9375 L 7 0 L 0.6875 0 L 7.6875 -43.75 L 17.75 -43.75 Z M 9.0625 -13.875 L 15.6875 -13.875 L 12.375 -36 Z M 9.0625 -13.875 "/></g></g></g><g fill="#ffffff" fill-opacity="1"><g transform="translate(114.243406, 207.748887)"><g><path d="M 8.9375 -14.5 L 0.25 -43.75 L 7.4375 -43.75 L 12.6875 -23.8125 L 17.9375 -43.75 L 24.5 -43.75 L 15.8125 -14.5 L 15.8125 0 L 8.9375 0 Z M 8.9375 -14.5 "/></g></g></g><g fill="#ffffff" fill-opacity="1"><g transform="translate(138.991825, 207.748887)"><g><path d="M 2.5 -43.75 L 9.375 -43.75 L 9.375 -6.25 L 20.6875 -6.25 L 20.6875 0 L 2.5 0 Z M 2.5 -43.75 "/></g></g></g><g fill="#ffffff" fill-opacity="1"><g transform="translate(160.177973, 207.748887)"><g><path d="M 2.5 -43.75 L 9.375 -43.75 L 9.375 0 L 2.5 0 Z M 2.5 -43.75 "/></g></g></g><g fill="#ffffff" fill-opacity="1"><g transform="translate(172.052213, 207.748887)"><g><path d="M 1.625 -33.25 C 1.625 -36.789062 2.46875 -39.507812 4.15625 -41.40625 C 5.84375 -43.300781 8.375 -44.25 11.75 -44.25 C 15.125 -44.25 17.65625 -43.300781 19.34375 -41.40625 C 21.03125 -39.507812 21.875 -36.789062 21.875 -33.25 L 21.875 -31.875 L 15.375 -31.875 L 15.375 -33.6875 C 15.375 -35.269531 15.070312 -36.382812 14.46875 -37.03125 C 13.863281 -37.675781 13.019531 -38 11.9375 -38 C 10.851562 -38 10.007812 -37.675781 9.40625 -37.03125 C 8.800781 -36.382812 8.5 -35.269531 8.5 -33.6875 C 8.5 -32.1875 8.832031 -30.863281 9.5 -29.71875 C 10.164062 -28.570312 11 -27.488281 12 -26.46875 C 13 -25.445312 14.070312 -24.425781 15.21875 -23.40625 C 16.363281 -22.382812 17.4375 -21.269531 18.4375 -20.0625 C 19.4375 -18.851562 20.269531 -17.476562 20.9375 -15.9375 C 21.601562 -14.394531 21.9375 -12.582031 21.9375 -10.5 C 21.9375 -6.957031 21.070312 -4.238281 19.34375 -2.34375 C 17.613281 -0.445312 15.0625 0.5 11.6875 0.5 C 8.3125 0.5 5.757812 -0.445312 4.03125 -2.34375 C 2.300781 -4.238281 1.4375 -6.957031 1.4375 -10.5 L 1.4375 -13.1875 L 7.9375 -13.1875 L 7.9375 -10.0625 C 7.9375 -8.476562 8.257812 -7.375 8.90625 -6.75 C 9.550781 -6.125 10.414062 -5.8125 11.5 -5.8125 C 12.582031 -5.8125 13.445312 -6.125 14.09375 -6.75 C 14.738281 -7.375 15.0625 -8.476562 15.0625 -10.0625 C 15.0625 -11.5625 14.726562 -12.882812 14.0625 -14.03125 C 13.394531 -15.175781 12.5625 -16.257812 11.5625 -17.28125 C 10.5625 -18.300781 9.488281 -19.320312 8.34375 -20.34375 C 7.195312 -21.363281 6.125 -22.476562 5.125 -23.6875 C 4.125 -24.894531 3.289062 -26.269531 2.625 -27.8125 C 1.957031 -29.351562 1.625 -31.164062 1.625 -33.25 Z M 1.625 -33.25 "/></g></g></g><g fill="#ffffff" fill-opacity="1"><g transform="translate(195.425717, 207.748887)"><g><path d="M 0.5 -43.75 L 21.75 -43.75 L 21.75 -37.5 L 14.5625 -37.5 L 14.5625 0 L 7.6875 0 L 7.6875 -37.5 L 0.5 -37.5 Z M 0.5 -43.75 "/></g></g></g><g fill="#ffffff" fill-opacity="1"><g transform="translate(44.06039, 260.248884)"><g><path d="M 12.875 -43.75 C 16.457031 -43.75 19.050781 -42.914062 20.65625 -41.25 C 22.257812 -39.582031 23.0625 -37.0625 23.0625 -33.6875 L 23.0625 -32.125 C 23.0625 -29.875 22.707031 -28.019531 22 -26.5625 C 21.289062 -25.101562 20.164062 -24.019531 18.625 -23.3125 C 20.5 -22.601562 21.820312 -21.445312 22.59375 -19.84375 C 23.363281 -18.238281 23.75 -16.269531 23.75 -13.9375 L 23.75 -10.375 C 23.75 -7 22.875 -4.425781 21.125 -2.65625 C 19.375 -0.882812 16.769531 0 13.3125 0 L 2.5 0 L 2.5 -43.75 Z M 9.375 -19.6875 L 9.375 -6.25 L 13.3125 -6.25 C 14.476562 -6.25 15.363281 -6.5625 15.96875 -7.1875 C 16.570312 -7.8125 16.875 -8.9375 16.875 -10.5625 L 16.875 -14.375 C 16.875 -16.414062 16.53125 -17.8125 15.84375 -18.5625 C 15.15625 -19.3125 14.019531 -19.6875 12.4375 -19.6875 Z M 9.375 -37.5 L 9.375 -25.9375 L 12.0625 -25.9375 C 13.351562 -25.9375 14.363281 -26.269531 15.09375 -26.9375 C 15.820312 -27.601562 16.1875 -28.8125 16.1875 -30.5625 L 16.1875 -33 C 16.1875 -34.582031 15.90625 -35.726562 15.34375 -36.4375 C 14.78125 -37.144531 13.894531 -37.5 12.6875 -37.5 Z M 9.375 -37.5 "/></g></g></g><g fill="#ffffff" fill-opacity="1"><g transform="translate(69.433771, 260.248884)"><g><path d="M 8.9375 -14.5 L 0.25 -43.75 L 7.4375 -43.75 L 12.6875 -23.8125 L 17.9375 -43.75 L 24.5 -43.75 L 15.8125 -14.5 L 15.8125 0 L 8.9375 0 Z M 8.9375 -14.5 "/></g></g></g><g fill="#ffffff" fill-opacity="1"><g transform="translate(94.18219, 260.248884)"><g/></g></g><g fill="#ffffff" fill-opacity="1"><g transform="translate(103.861167, 260.248884)"><g><path d="M 24.75 0 L 17.8125 0 L 16.625 -7.9375 L 8.1875 -7.9375 L 7 0 L 0.6875 0 L 7.6875 -43.75 L 17.75 -43.75 Z M 9.0625 -13.875 L 15.6875 -13.875 L 12.375 -36 Z M 9.0625 -13.875 "/></g></g></g><g fill="#ffffff" fill-opacity="1"><g transform="translate(129.297044, 260.248884)"><g><path d="M 2.5 -43.75 L 9.375 -43.75 L 9.375 0 L 2.5 0 Z M 2.5 -43.75 "/></g></g></g></svg>